<svg width="356" height="151" viewBox="0 0 356 151" fill="none" xmlns="http://www.w3.org/2000/svg">
<path d="M95.6709 36.7927L84.8456 7.19703C84.0385 5.29682 82.8515 4.10919 81.2372 3.58664C80.6675 3.37286 80.2639 3.15909 79.979 2.99282C79.7179 2.8028 79.5754 2.61278 79.5754 2.39901C79.5754 1.99522 80.0502 1.8052 81.0236 1.8052L83.1364 1.8527C84.1335 1.92396 84.9169 1.97146 85.4866 1.97146L88.5015 1.92396C88.9289 1.90021 89.4749 1.87645 90.1633 1.87645C91.1367 1.87645 91.6114 2.06647 91.6114 2.47027C91.6114 2.73155 91.4928 2.92157 91.2316 3.06408C90.9705 3.2066 90.5669 3.37286 89.9497 3.56289C89.285 3.75291 88.9526 4.34672 88.9526 5.36808C88.9526 5.84313 89.0001 6.31818 89.1188 6.79323C89.2375 7.26829 89.3087 7.57707 89.3324 7.71959C90.828 11.9475 92.1575 15.5342 93.297 18.5033C94.4365 21.4723 95.8608 25.0352 97.5464 29.1682C97.6888 29.5244 97.8075 29.7145 97.9499 29.7145C98.0924 29.7145 98.2111 29.5482 98.306 29.2157L102.223 18.6695C102.413 18.1232 102.532 17.6957 102.532 17.4106C102.532 17.1256 102.389 16.603 102.128 15.8192L99.2794 8.07587C98.8758 6.98326 98.2348 6.03315 97.3327 5.22557C96.4306 4.41798 95.5048 3.87167 94.5314 3.58664C93.9617 3.39662 93.5581 3.2066 93.2732 3.01658C93.0121 2.82656 92.8696 2.61278 92.8696 2.39901C92.8696 1.99522 93.3444 1.8052 94.3178 1.8052L96.4781 1.8527C97.5464 1.92396 98.401 1.97146 99.042 1.97146L101.345 1.92396C101.748 1.90021 102.271 1.87645 102.888 1.87645C103.861 1.87645 104.336 2.06647 104.336 2.47027C104.336 2.66029 104.265 2.82656 104.099 2.96907C103.956 3.11159 103.719 3.27785 103.434 3.46788C102.674 3.82416 102.294 4.27546 102.294 4.77427C102.294 4.84552 102.318 4.98804 102.389 5.20181C102.627 5.93814 102.959 6.912 103.41 8.17088C103.861 9.42977 104.265 10.4986 104.645 11.3537C104.668 11.425 104.739 11.5675 104.811 11.7575C104.906 11.9475 104.977 12.0663 105.096 12.0663C105.214 12.0663 105.357 11.8288 105.547 11.3537C106.211 9.7148 106.876 7.64833 107.541 5.17806C107.565 5.0593 107.588 4.94053 107.588 4.79802C107.588 4.46548 107.493 4.2042 107.303 4.01418C107.113 3.82416 106.852 3.61039 106.52 3.39662C106.496 3.34911 106.378 3.27785 106.211 3.18284C106.045 3.06408 105.926 2.96907 105.832 2.85031C105.737 2.73155 105.713 2.61278 105.713 2.47027C105.713 2.06647 106.188 1.87645 107.161 1.87645L108.751 1.92396C108.941 1.97146 109.274 1.97146 109.749 1.97146L111.197 1.92396C111.79 1.8527 112.289 1.8052 112.692 1.8052C113.666 1.8052 114.14 1.99522 114.14 2.39901C114.14 2.87406 113.594 3.23035 112.479 3.49163C111.482 3.75291 110.769 4.03794 110.366 4.37047C109.962 4.70301 109.535 5.27307 109.06 6.12816C108.799 6.62697 108.395 7.57707 107.826 8.97847C107.28 10.3561 106.805 11.6625 106.401 12.8501C106.259 13.1827 106.164 13.5627 106.093 13.9903C106.021 14.4178 106.021 14.7266 106.093 14.9166L111.244 29.3819C111.315 29.5244 111.363 29.5957 111.387 29.5957C111.482 29.5957 111.624 29.4057 111.79 29.0494C113.048 25.3677 115.09 18.337 117.891 7.90961C118.081 7.24453 118.2 6.60321 118.2 5.93814C118.2 4.6555 117.701 3.87167 116.704 3.58664C115.612 3.2541 115.042 2.89781 115.042 2.49402C115.042 2.09023 115.517 1.90021 116.491 1.90021L120.099 1.94771C120.74 1.94771 121.595 1.90021 122.663 1.82895L124.61 1.78144C125.583 1.78144 126.058 1.97146 126.058 2.37526C126.058 2.85031 125.512 3.2066 124.396 3.46788C122.615 3.89542 121.262 5.5106 120.289 8.26589L111.434 36.8165C111.363 37.0303 111.268 37.2915 111.102 37.6003C110.959 37.9091 110.793 38.0754 110.627 38.0754C110.484 38.0754 110.342 37.9566 110.176 37.7428C110.01 37.5291 109.867 37.2915 109.772 37.0303C108.538 34.0137 107.232 30.4983 105.855 26.4841L103.6 20.1422C103.505 19.9284 103.434 19.8096 103.41 19.8096C103.339 19.8096 103.22 20.0234 103.054 20.4747C101.914 23.42 100.965 25.9853 100.181 28.1705C99.3981 30.3558 98.4485 33.1586 97.3564 36.579C97.214 37.0065 97.0478 37.4103 96.8579 37.7428C96.668 38.0991 96.4543 38.2654 96.2644 38.2654C96.1695 38.2654 95.9321 37.7666 95.5522 36.7452L95.6709 36.7927Z" fill="#231815"/>
<path d="M127.316 37.1253C127.316 36.864 127.458 36.674 127.719 36.5315C127.981 36.3889 128.408 36.2464 128.978 36.1514C130.283 35.8901 131.233 35.4626 131.803 34.8688C132.396 34.275 132.681 33.3249 132.681 32.066V7.45831C132.681 6.17567 132.444 5.27307 131.945 4.70301C131.47 4.13295 130.592 3.72915 129.31 3.46788C128.218 3.2541 127.648 2.87406 127.648 2.37526C127.648 1.97146 128.123 1.78144 129.096 1.78144C130.355 1.78144 131.898 1.82895 133.702 1.90021L137.951 1.94771L144.812 1.90021L149.061 1.78144C149.631 1.78144 149.94 1.94771 149.964 2.28025C150.035 2.56528 150.177 3.37286 150.391 4.67926C150.605 5.98565 150.723 7.05451 150.723 7.90961C150.723 8.45591 150.486 8.71719 150.011 8.71719C149.845 8.71719 149.726 8.66969 149.655 8.59843C149.584 8.52717 149.512 8.38466 149.465 8.17088C149.394 7.98086 149.275 7.50581 149.061 6.74573C148.872 5.98565 148.634 5.46309 148.349 5.15431C147.542 4.18045 146.426 3.68165 145.002 3.68165H138.45C138.117 3.68165 137.738 3.84792 137.287 4.2042C136.859 4.56049 136.646 4.96429 136.646 5.43934V17.0068C136.646 17.3394 136.741 17.6244 136.93 17.8619C137.12 18.0995 137.334 18.2182 137.548 18.2182H142.509C143.435 18.2182 144.1 18.0282 144.456 17.6719C144.812 17.3156 145.144 16.603 145.406 15.5342C145.595 14.7266 145.904 14.3228 146.308 14.3228C146.45 14.3228 146.593 14.3941 146.735 14.5603C146.877 14.7266 146.972 14.9404 146.972 15.1779L146.925 16.603L146.83 19.0021L146.877 21.8999L146.925 23.2063C146.925 23.8238 146.782 24.1326 146.474 24.1326C145.975 24.1326 145.595 23.5388 145.311 22.3749C145.121 21.4961 144.836 20.8785 144.48 20.4985C144.124 20.1184 143.625 19.9284 143.008 19.9284H138.355C137.714 19.9284 137.287 20.0234 137.025 20.2134C136.764 20.4035 136.646 20.7835 136.646 21.3536V31.8284C136.646 33.1823 136.907 34.1324 137.429 34.6788C137.951 35.2251 138.782 35.4863 139.969 35.4863H143.673C144.765 35.4863 145.69 35.4151 146.403 35.2726C147.115 35.1301 147.732 34.8925 148.231 34.56C148.729 34.2037 149.18 33.7049 149.607 33.0636C150.035 32.4223 150.51 31.5197 151.079 30.3558C151.317 29.8807 151.554 29.6432 151.792 29.6432C152.219 29.6432 152.432 29.9045 152.432 30.4033C152.432 30.8783 152.243 31.8759 151.886 33.3724C151.53 34.8925 151.198 36.0089 150.889 36.7215C150.866 36.7927 150.794 36.9115 150.747 37.1015C150.676 37.2915 150.605 37.4103 150.533 37.5053C150.438 37.6003 150.343 37.6478 150.201 37.6478C149.536 37.6478 146.593 37.6003 141.394 37.4816C139.091 37.3628 136.812 37.3153 134.533 37.3153C133.607 37.3153 132.729 37.3628 131.921 37.4816C130.212 37.6003 129.168 37.6478 128.764 37.6478C127.791 37.6478 127.316 37.4578 127.316 37.054V37.1253Z" fill="#231815"/>
<path d="M164.017 37.5291C163.756 37.4103 163.614 37.2203 163.614 37.0065C163.614 36.5315 164.16 36.1039 165.276 35.7476C166.249 35.4151 167.08 34.9638 167.768 34.3462C168.457 33.7524 169.074 32.8023 169.572 31.5434C171.353 27.1017 172.896 23.0637 174.202 19.4534C175.531 15.8192 177.098 11.3062 178.926 5.89064C179.282 4.75051 179.519 3.7054 179.638 2.73154C179.733 2.68404 179.97 2.61278 180.374 2.49402C180.754 2.37526 181.11 2.18524 181.442 1.92396C181.703 1.71018 181.917 1.37765 182.06 0.950102C182.202 0.522556 182.321 0.213772 182.392 0.0712569C182.416 0.0237517 182.463 0.0237517 182.511 0.0475043C182.558 0.0475043 182.606 0.0950094 182.629 0.118762C182.7 0.308783 182.748 0.498803 182.795 0.712576C182.843 0.926349 182.914 1.14012 182.962 1.30639C185.431 9.78606 188.398 19.5009 191.864 30.4745C192.505 32.4698 193.193 33.8237 193.977 34.5362C194.736 35.2488 195.734 35.7001 196.921 35.9376C197.467 36.0564 197.87 36.2227 198.155 36.4602C198.44 36.6977 198.582 36.9352 198.582 37.1965C198.582 37.5528 198.108 37.7428 197.134 37.7428L194.428 37.6241C192.552 37.4816 191.128 37.4103 190.178 37.4103L184.932 37.4578C183.959 37.4578 183.484 37.244 183.484 36.7927C183.484 36.579 183.65 36.3652 183.959 36.1752C184.267 35.9851 184.671 35.8426 185.146 35.7714C187.187 35.4151 188.208 34.5837 188.208 33.3249C188.208 32.161 187.567 29.2157 186.261 24.4889C186.19 24.2276 186.072 24.0614 185.882 23.9901C185.692 23.9188 185.383 23.8713 184.908 23.8713H175.436C175.08 23.8713 174.795 24.2039 174.582 24.8452C174.202 26.0091 173.774 27.5292 173.276 29.4057C172.777 31.2821 172.516 32.3748 172.516 32.7073C172.516 33.4674 172.801 34.1324 173.347 34.6788C173.893 35.2251 174.582 35.6051 175.436 35.8189C176.03 36.0089 176.457 36.1752 176.718 36.3177C176.979 36.4602 177.098 36.674 177.098 36.9115C177.098 37.3153 176.623 37.5053 175.65 37.5053C175.056 37.5053 174.558 37.5053 174.154 37.4578L171.092 37.4103C170.522 37.4103 169.905 37.434 169.216 37.4816C168.528 37.5291 168.029 37.5528 167.697 37.5528C166.771 37.6716 165.893 37.7191 165.086 37.7191C164.658 37.7191 164.302 37.6478 164.041 37.5291H164.017ZM184.528 22.0424C184.718 22.0424 184.885 22.0424 185.027 21.9949C185.169 21.9474 185.217 21.8761 185.217 21.7811L185.122 21.2348L181.205 7.9096C181.015 7.24453 180.849 6.93575 180.754 6.93575C180.683 6.93575 180.564 7.24453 180.35 7.8621L175.792 21.2348L175.697 21.6623C175.697 21.8524 175.768 21.9474 175.911 21.9949C176.053 22.0424 176.338 22.0424 176.742 22.0424H184.505H184.528Z" fill="#231815"/>
<path d="M226.263 37.9329C225.147 37.5053 224.174 36.7215 223.343 35.6289C221.8 33.5624 220.541 31.7809 219.544 30.3083C218.547 28.8356 217.265 26.7216 215.746 23.9901C215.247 23.0875 214.535 22.3749 213.586 21.8524C212.494 21.2586 211.164 20.8785 209.621 20.7122H209.526C209.099 20.7122 208.885 21.0685 208.885 21.8049V31.4247C208.885 34.1087 210.001 35.6764 212.233 36.1277C212.802 36.2464 213.206 36.3652 213.491 36.5077C213.752 36.6502 213.894 36.864 213.894 37.1015C213.894 37.5053 213.42 37.6953 212.446 37.6953C211.378 37.6953 210.405 37.6241 209.55 37.4816C208.956 37.3628 208.292 37.3153 207.556 37.3153C206.962 37.3153 206.345 37.339 205.728 37.3865C205.111 37.4341 204.66 37.4578 204.398 37.4578C203.069 37.6003 201.953 37.6716 201.051 37.6716C200.078 37.6716 199.603 37.4816 199.603 37.0778C199.603 36.8165 199.745 36.6265 200.007 36.484C200.268 36.3414 200.695 36.1989 201.265 36.1039C202.57 35.8426 203.496 35.4151 204.066 34.8213C204.636 34.2275 204.921 33.2536 204.921 31.9472V8.71719C204.921 7.19703 204.873 6.10441 204.755 5.46309C204.636 4.82177 204.375 4.37047 203.947 4.06169C203.52 3.77666 202.832 3.56289 201.858 3.46788C201.312 3.42037 200.909 3.30161 200.624 3.08783C200.339 2.87406 200.197 2.63654 200.197 2.37526C200.197 1.97146 200.671 1.78144 201.645 1.78144C203.069 1.78144 204.019 1.78144 204.446 1.82895H206.559C207.057 1.82895 207.817 1.78144 208.814 1.71018C210.618 1.59142 211.781 1.54392 212.327 1.54392C216.007 1.54392 218.785 2.304 220.708 3.80041C222.631 5.32058 223.58 7.52956 223.58 10.4986C223.58 14.4416 221.61 17.4819 217.669 19.6671C217.574 19.7146 217.526 19.7859 217.526 19.9284C217.526 20.0472 217.574 20.1897 217.669 20.356C219.782 23.8238 221.467 26.4604 222.749 28.3368C224.031 30.1895 225.717 32.161 227.829 34.2275C228.637 34.9875 229.444 35.4863 230.275 35.7001C231.106 35.9139 232.221 36.0327 233.574 36.0327C234.073 36.0327 234.334 36.2227 234.334 36.6265C234.334 37.3153 233.883 37.8141 233.005 38.0991C232.126 38.3842 231.201 38.5267 230.275 38.5267C228.732 38.5267 227.402 38.3129 226.286 37.8616L226.263 37.9329ZM215.461 18.3607C216.601 17.6244 217.503 16.6268 218.12 15.3917C218.737 14.1565 219.046 12.8264 219.046 11.4012C219.046 8.8122 218.547 6.81699 217.55 5.36808C216.553 3.94293 214.606 3.2066 211.687 3.2066C210.642 3.2066 209.954 3.56289 209.597 4.27546C209.241 4.98804 209.028 6.31818 208.98 8.28965C208.909 10.7599 208.885 13.8715 208.885 17.5769C208.885 18.4082 209.075 18.9546 209.479 19.1683C209.882 19.3821 210.571 19.5009 211.52 19.5009C212.992 19.5009 214.298 19.1208 215.461 18.3845V18.3607Z" fill="#231815"/>
<path d="M235.901 37.1253C235.901 36.864 236.044 36.674 236.305 36.5315C236.566 36.3889 236.993 36.2464 237.563 36.1514C238.869 35.8901 239.818 35.4626 240.388 34.8688C240.981 34.275 241.266 33.3249 241.266 32.066V7.45831C241.266 6.17567 241.029 5.27307 240.53 4.70301C240.056 4.13295 239.177 3.72915 237.895 3.46788C236.803 3.2541 236.233 2.87406 236.233 2.37526C236.233 1.97146 236.708 1.78144 237.682 1.78144C238.94 1.78144 240.483 1.82895 242.287 1.90021L246.536 1.94771L253.397 1.90021L257.647 1.78144C258.216 1.78144 258.525 1.94771 258.549 2.28025C258.62 2.56528 258.762 3.37286 258.976 4.67926C259.19 5.98565 259.308 7.05451 259.308 7.90961C259.308 8.45591 259.071 8.71719 258.596 8.71719C258.43 8.71719 258.311 8.66969 258.24 8.59843C258.169 8.52717 258.098 8.38466 258.05 8.17088C257.979 7.98086 257.86 7.50581 257.647 6.74573C257.457 5.98565 257.219 5.46309 256.934 5.15431C256.127 4.18045 255.012 3.68165 253.587 3.68165H247.035C246.703 3.68165 246.323 3.84792 245.872 4.2042C245.444 4.56049 245.231 4.96429 245.231 5.43934V17.0068C245.231 17.3394 245.326 17.6244 245.516 17.8619C245.706 18.0995 245.896 18.2182 246.133 18.2182H251.094C252.02 18.2182 252.685 18.0282 253.041 17.6719C253.397 17.3156 253.73 16.603 253.991 15.5342C254.181 14.7266 254.489 14.3228 254.893 14.3228C255.035 14.3228 255.178 14.3941 255.32 14.5603C255.463 14.7266 255.558 14.9404 255.558 15.1779L255.51 16.603L255.415 19.0021L255.463 21.8999L255.51 23.2063C255.51 23.8238 255.368 24.1326 255.059 24.1326C254.56 24.1326 254.181 23.5388 253.896 22.3749C253.706 21.4961 253.421 20.8785 253.065 20.4985C252.709 20.1184 252.21 19.9284 251.593 19.9284H246.94C246.299 19.9284 245.872 20.0234 245.611 20.2134C245.349 20.4035 245.231 20.7835 245.231 21.3536V31.8284C245.231 33.1823 245.492 34.1324 246.014 34.6788C246.536 35.2251 247.367 35.4863 248.554 35.4863H252.258C253.35 35.4863 254.276 35.4151 254.988 35.2726C255.7 35.1301 256.317 34.8925 256.816 34.56C257.314 34.2037 257.765 33.7049 258.193 33.0636C258.62 32.4223 259.095 31.5197 259.665 30.3558C259.902 29.8807 260.139 29.6432 260.377 29.6432C260.804 29.6432 261.018 29.9045 261.018 30.4033C261.018 30.8783 260.828 31.8759 260.472 33.3724C260.116 34.8925 259.783 36.0089 259.475 36.7215C259.451 36.7927 259.38 36.9115 259.332 37.1015C259.261 37.2915 259.19 37.4103 259.119 37.5053C259.024 37.6003 258.929 37.6478 258.786 37.6478C258.121 37.6478 255.178 37.6003 249.979 37.4816C247.676 37.3628 245.397 37.3153 243.118 37.3153C242.192 37.3153 241.314 37.3628 240.507 37.4816C238.797 37.6003 237.753 37.6478 237.349 37.6478C236.376 37.6478 235.901 37.4578 235.901 37.054V37.1253Z" fill="#231815"/>
<path d="M74.4714 85.1055C71.8125 83.5378 69.6759 81.4001 68.0854 78.6923C66.4948 75.9845 65.7114 72.9916 65.7114 69.7138C65.7114 66.1747 66.5423 62.9443 68.2041 60.0227C69.8659 57.1012 72.1211 54.7734 74.9699 53.0632C77.7949 51.3531 80.8573 50.498 84.1334 50.498C85.2966 50.498 87.1009 50.7117 89.5223 51.1155C91.9437 51.5431 93.4868 51.9231 94.1515 52.2794C94.3177 52.3507 94.4364 52.4457 94.4839 52.5169C94.5314 52.6119 94.5789 52.7545 94.6026 52.9207C94.9349 55.771 95.1011 57.695 95.1011 58.7163C95.1011 59.0014 95.0299 59.2627 94.8875 59.4764C94.745 59.6902 94.5551 59.809 94.3652 59.809C94.0566 59.809 93.8192 59.6902 93.6767 59.4289C93.5106 59.1676 93.3681 58.8114 93.2257 58.3363C92.8696 57.2437 92.3473 56.2698 91.6826 55.4385C91.2078 54.7734 90.282 54.1321 88.9051 53.4908C87.5282 52.8495 85.7952 52.5407 83.7298 52.5407C81.2372 52.5407 78.9819 53.3008 76.9878 54.7972C74.9936 56.3173 73.4506 58.3363 72.3585 60.8541C71.2665 63.3956 70.6968 66.0796 70.6968 68.9537C70.6968 72.2791 71.314 75.1769 72.5484 77.6709C73.7829 80.1649 75.3972 82.0651 77.4151 83.3953C79.4092 84.7254 81.5458 85.3905 83.8248 85.3905C85.4866 85.3905 86.816 85.1767 87.7893 84.7729C88.7626 84.3454 89.4748 83.8941 89.9496 83.3715C90.3769 82.8965 90.733 82.3027 91.0179 81.5663C91.3028 80.83 91.4452 80.0462 91.4452 79.1673C91.4452 78.5022 91.4452 78.0034 91.4927 77.6471L91.5402 76.0082C91.5402 75.1294 91.4452 74.5831 91.279 74.3693C90.9229 73.823 90.187 73.3954 89.0713 73.1104C87.9792 72.8254 87.0771 72.6829 86.3649 72.6829C86.1988 72.6829 85.9851 72.5878 85.7477 72.3978C85.4866 72.2078 85.3679 71.994 85.3679 71.7328C85.3679 71.4715 85.4866 71.2577 85.7477 71.0677C86.0088 70.8777 86.1988 70.8064 86.3649 70.8064C87.1246 70.8064 88.1217 70.8539 89.3086 70.9252C90.5668 70.9964 91.6826 71.0439 92.6559 71.0439C93.2494 71.0439 93.9854 70.9964 94.8637 70.9252C95.7421 70.8539 96.478 70.8064 97.119 70.8064C97.3089 70.8064 97.5463 70.8777 97.7837 71.0202C98.0448 71.1627 98.1635 71.3765 98.1635 71.6853C98.1635 71.899 98.0211 72.1128 97.76 72.3028C97.4988 72.4928 97.2852 72.6116 97.119 72.6591C96.4068 72.8729 95.9083 73.1817 95.6234 73.5855C95.3148 73.9892 95.1249 74.5593 95.0299 75.3431C94.8637 76.6495 94.7688 78.0272 94.7688 79.4286V80.9013C94.7688 81.0913 94.8163 81.2575 94.8875 81.4238C94.9587 81.5901 95.0299 81.7088 95.0536 81.7801C95.1249 81.8989 95.2436 82.0414 95.4335 82.2551C95.6234 82.4452 95.7184 82.6114 95.7184 82.7302C95.7184 83.3478 95.481 83.7041 95.0062 83.7753C94.7688 83.8228 94.3177 84.0366 93.653 84.4404C92.015 85.2717 90.3532 85.9843 88.6914 86.5781C87.0296 87.1719 85.1542 87.457 83.0889 87.457C80.0264 87.457 77.1539 86.6731 74.4714 85.1055Z" fill="#231815"/>
<path d="M101.796 86.3643C101.796 86.1031 101.938 85.913 102.199 85.7705C102.46 85.628 102.888 85.4855 103.457 85.3905C104.763 85.1292 105.713 84.7017 106.282 84.1079C106.876 83.514 107.161 82.5639 107.161 81.305V56.7211C107.161 55.4385 106.923 54.5359 106.425 53.9658C105.95 53.3958 105.072 52.992 103.79 52.7307C102.698 52.5169 102.128 52.1369 102.128 51.6381C102.128 51.2343 102.603 51.0443 103.576 51.0443C104.834 51.0443 106.377 51.0918 108.182 51.163L112.431 51.2105L119.292 51.163L123.541 51.0443C124.111 51.0443 124.42 51.2105 124.443 51.5431C124.515 51.8281 124.657 52.6357 124.871 53.9421C125.084 55.2485 125.203 56.3173 125.203 57.1724C125.203 57.7187 124.966 57.98 124.491 57.98C124.325 57.98 124.206 57.9325 124.135 57.8613C124.063 57.79 123.992 57.6475 123.945 57.4337C123.874 57.2437 123.755 56.7686 123.541 56.0086C123.351 55.2485 123.114 54.7259 122.829 54.4171C122.022 53.4433 120.906 52.9445 119.482 52.9445H112.93C112.597 52.9445 112.217 53.1107 111.766 53.467C111.339 53.8233 111.125 54.2271 111.125 54.7022V66.2697C111.125 66.6022 111.22 66.8872 111.41 67.1248C111.6 67.3623 111.79 67.4811 112.027 67.4811H116.989C117.915 67.4811 118.58 67.291 118.936 66.9347C119.292 66.5785 119.624 65.8659 119.885 64.797C120.075 63.9894 120.384 63.5856 120.787 63.5856C120.93 63.5856 121.072 63.6569 121.215 63.8232C121.357 63.9894 121.452 64.2032 121.452 64.4407L121.405 65.8659L121.31 68.2649L121.357 71.1627L121.405 72.4691C121.405 73.0867 121.262 73.3954 120.954 73.3954C120.455 73.3954 120.075 72.8016 119.79 71.6378C119.6 70.7589 119.316 70.1413 118.959 69.7613C118.603 69.3813 118.105 69.1912 117.488 69.1912H112.835C112.194 69.1912 111.766 69.2862 111.505 69.4763C111.244 69.6663 111.125 70.0463 111.125 70.6164V81.0913C111.125 82.4452 111.386 83.3953 111.909 83.9416C112.431 84.4879 113.262 84.7492 114.449 84.7492H118.152C119.244 84.7492 120.17 84.6779 120.882 84.5354C121.595 84.3929 122.212 84.1554 122.71 83.8228C123.209 83.4665 123.66 82.9677 124.087 82.3264C124.515 81.6851 124.989 80.7825 125.559 79.6186C125.796 79.1436 126.034 78.906 126.271 78.906C126.699 78.906 126.912 79.1673 126.912 79.6661C126.912 80.1412 126.722 81.1388 126.366 82.6352C126.01 84.1554 125.678 85.2717 125.369 85.9843C125.345 86.0556 125.274 86.1743 125.227 86.3643C125.155 86.5544 125.084 86.6731 125.013 86.7681C124.918 86.8631 124.823 86.9107 124.681 86.9107C124.016 86.9107 121.072 86.8632 115.873 86.7444C113.571 86.6256 111.292 86.5781 109.013 86.5781C108.087 86.5781 107.208 86.6256 106.401 86.7444C104.692 86.8632 103.647 86.9107 103.244 86.9107C102.27 86.9107 101.796 86.7206 101.796 86.3168V86.3643Z" fill="#231815"/>
<path d="M137.453 86.3643C137.453 86.1031 137.595 85.913 137.856 85.7705C138.117 85.628 138.545 85.4855 139.114 85.3905C140.42 85.1292 141.393 84.6779 142.034 84.0366C142.675 83.3715 143.008 82.4214 143.008 81.1388V59.9515C143.008 57.505 142.937 55.866 142.77 55.011C142.628 54.1559 142.343 53.6808 141.939 53.6095C141.512 53.4908 140.99 53.4433 140.42 53.4195C139.827 53.4195 139.162 53.3958 138.402 53.3958H136.052C135.174 53.3958 134.367 53.5858 133.607 53.9421C132.847 54.2984 132.277 54.8447 131.945 55.5335C131.755 55.9611 131.447 56.4361 131.019 56.8874C130.592 57.3625 130.236 57.6 129.903 57.6C129.666 57.6 129.547 57.3625 129.547 56.8874C129.547 56.5311 129.642 56.1511 129.809 55.7948C130.283 54.8209 130.616 53.9183 130.806 53.087C130.995 52.2794 131.185 51.258 131.352 50.0467C131.447 49.2153 131.731 48.7878 132.206 48.7878C132.301 48.7878 132.491 48.9778 132.776 49.3816C133.061 49.7854 133.274 50.1654 133.441 50.5217C133.631 50.878 134.082 51.163 134.77 51.3293C135.459 51.5193 136.171 51.5906 136.954 51.5906H154.569C156.634 51.5906 158.225 51.3293 159.317 50.783C159.507 50.6642 159.815 50.4742 160.195 50.1654C160.575 49.8566 160.931 49.6904 161.264 49.6904C161.359 49.6904 161.453 49.8329 161.525 50.0942C161.596 50.3792 161.62 50.6405 161.62 50.9493C161.62 51.0918 161.548 51.6143 161.43 52.4694L161.121 54.1084C160.979 54.5359 160.931 55.0822 160.931 55.6998V56.3648C160.931 56.7211 160.86 57.1012 160.718 57.505C160.575 57.9088 160.385 58.0988 160.148 58.0988C159.91 58.0988 159.72 57.9325 159.602 57.5762C159.459 57.2199 159.341 56.6499 159.198 55.866C159.056 55.0585 158.652 54.4409 157.94 54.0133C157.228 53.5858 156.112 53.3483 154.593 53.3483H149.536C148.705 53.3483 148.136 53.467 147.803 53.6808C147.495 53.8946 147.281 54.4171 147.186 55.2485C147.091 56.0798 147.043 57.5287 147.043 59.6427V81.0913C147.043 82.3739 147.376 83.324 148.041 83.9891C148.705 84.6542 149.702 85.1055 150.984 85.343C151.554 85.4617 151.958 85.5805 152.242 85.723C152.504 85.8655 152.646 86.0793 152.646 86.3168C152.646 86.7206 152.171 86.9107 151.198 86.9107C149.963 86.9107 148.895 86.8631 147.993 86.7444C146.925 86.6731 146.046 86.6256 145.334 86.6256C144.503 86.6256 143.483 86.6731 142.272 86.7444C141.275 86.8631 140.159 86.9107 138.925 86.9107C137.951 86.9107 137.476 86.7206 137.476 86.3168L137.453 86.3643Z" fill="#231815"/>
<path d="M170.997 86.3643C170.997 86.1031 171.139 85.913 171.4 85.7705C171.662 85.628 172.089 85.4855 172.659 85.3905C173.964 85.1292 174.938 84.6779 175.579 84.0366C176.22 83.3715 176.552 82.4214 176.552 81.1388V59.9515C176.552 57.505 176.481 55.866 176.315 55.011C176.172 54.1559 175.887 53.6808 175.484 53.6095C175.056 53.4908 174.534 53.4433 173.964 53.4195C173.371 53.4195 172.706 53.3958 171.946 53.3958H169.596C168.718 53.3958 167.911 53.5858 167.151 53.9421C166.391 54.2984 165.822 54.8447 165.489 55.5335C165.299 55.9611 164.991 56.4361 164.563 56.8874C164.136 57.3625 163.78 57.6 163.448 57.6C163.21 57.6 163.092 57.3625 163.092 56.8874C163.092 56.5311 163.187 56.1511 163.353 55.7948C163.827 54.8209 164.16 53.9183 164.35 53.087C164.54 52.2794 164.73 51.258 164.896 50.0467C164.991 49.2153 165.276 48.7878 165.75 48.7878C165.845 48.7878 166.035 48.9778 166.32 49.3816C166.605 49.7854 166.819 50.1654 166.985 50.5217C167.175 50.878 167.626 51.163 168.314 51.3293C169.003 51.5193 169.715 51.5906 170.498 51.5906H188.113C190.179 51.5906 191.769 51.3293 192.861 50.783C193.051 50.6642 193.36 50.4742 193.739 50.1654C194.119 49.8566 194.475 49.6904 194.808 49.6904C194.903 49.6904 194.998 49.8329 195.069 50.0942C195.14 50.3792 195.164 50.6405 195.164 50.9493C195.164 51.0918 195.093 51.6143 194.974 52.4694L194.665 54.1084C194.523 54.5359 194.475 55.0822 194.475 55.6998V56.3648C194.475 56.7211 194.404 57.1012 194.262 57.505C194.119 57.9088 193.929 58.0988 193.692 58.0988C193.455 58.0988 193.265 57.9325 193.146 57.5762C193.004 57.2199 192.885 56.6499 192.742 55.866C192.6 55.0585 192.196 54.4409 191.484 54.0133C190.772 53.5858 189.656 53.3483 188.137 53.3483H183.08C182.249 53.3483 181.68 53.467 181.347 53.6808C181.039 53.8946 180.825 54.4171 180.73 55.2485C180.635 56.0798 180.588 57.5287 180.588 59.6427V81.0913C180.588 82.3739 180.92 83.324 181.585 83.9891C182.249 84.6542 183.247 85.1055 184.528 85.343C185.098 85.4617 185.502 85.5805 185.787 85.723C186.048 85.8655 186.19 86.0793 186.19 86.3168C186.19 86.7206 185.715 86.9107 184.742 86.9107C183.508 86.9107 182.439 86.8631 181.537 86.7444C180.469 86.6731 179.591 86.6256 178.878 86.6256C178.048 86.6256 177.027 86.6731 175.816 86.7444C174.819 86.8631 173.703 86.9107 172.469 86.9107C171.495 86.9107 171.021 86.7206 171.021 86.3168L170.997 86.3643Z" fill="#231815"/>
<path d="M196.232 86.3644C196.232 86.1031 196.374 85.9131 196.636 85.7705C196.897 85.628 197.324 85.4855 197.894 85.3905C199.223 85.1292 200.22 84.7017 200.838 84.1079C201.479 83.514 201.787 82.5877 201.787 81.3526V56.6736C201.787 55.391 201.55 54.4884 201.051 53.9421C200.576 53.3958 199.698 52.992 198.416 52.7307C197.324 52.5169 196.754 52.1369 196.754 51.6381C196.754 51.2343 197.229 51.0443 198.202 51.0443C199.176 51.0443 200.197 51.0918 201.407 51.163L204.066 51.2105L206.464 51.163C207.532 51.0918 208.553 51.0443 209.526 51.0443C210.5 51.0443 210.974 51.2343 210.974 51.6381C210.974 52.1369 210.428 52.5169 209.313 52.7307C208.007 52.992 207.081 53.3958 206.559 53.9658C206.013 54.5359 205.752 55.4385 205.752 56.6736V81.3526C205.752 82.5877 206.084 83.514 206.725 84.1079C207.366 84.7017 208.363 85.1292 209.692 85.3905C210.262 85.5093 210.666 85.628 210.951 85.7705C211.212 85.9131 211.354 86.1268 211.354 86.3644C211.354 86.7681 210.879 86.9582 209.906 86.9582C208.672 86.9582 207.603 86.9107 206.701 86.7919C205.633 86.7206 204.755 86.6731 204.042 86.6731C203.212 86.6731 202.191 86.7206 200.98 86.7919C199.983 86.9107 198.867 86.9582 197.633 86.9582C196.659 86.9582 196.185 86.7681 196.185 86.3644H196.232Z" fill="#231815"/>
<path d="M243.806 86.6969C242.928 86.0793 242.121 85.248 241.432 84.1791C241.171 83.7516 239.225 81.1863 235.593 76.5308C231.96 71.8753 229.349 68.4787 227.711 66.3172C225.052 62.8968 223.462 60.8778 223.011 60.2603C222.583 59.6902 222.227 59.3814 221.966 59.3814C221.8 59.3814 221.681 59.5002 221.61 59.7377C221.539 59.9752 221.515 60.2365 221.515 60.5215C221.349 69.5238 221.254 76.3408 221.254 80.9963C221.254 83.4665 222.322 84.9392 224.459 85.3667C225.028 85.4855 225.432 85.6043 225.717 85.7468C225.978 85.8893 226.12 86.1031 226.12 86.3406C226.12 86.7444 225.646 86.9344 224.672 86.9344C223.438 86.9344 222.488 86.8869 221.824 86.7681C221.159 86.6969 220.542 86.6494 219.972 86.6494C219.473 86.6494 218.88 86.6969 218.215 86.7681C216.909 86.8869 215.984 86.9344 215.414 86.9344C214.44 86.9344 213.966 86.7444 213.966 86.3406C213.966 86.1268 214.084 85.9368 214.346 85.7943C214.607 85.6518 215.01 85.4855 215.627 85.2955C217.337 84.7967 218.286 83.3003 218.524 80.8062C218.761 78.431 218.975 75.2481 219.141 71.234C219.331 67.2198 219.426 63.1343 219.426 58.9776C219.426 57.1962 219.022 55.866 218.191 54.9872C217.384 54.1084 216.126 53.3958 214.464 52.802C214.156 52.6832 213.823 52.5169 213.467 52.2794C213.111 52.0419 212.921 51.7806 212.921 51.4956C212.921 51.2105 213.04 50.9968 213.301 50.9018C213.562 50.8067 213.8 50.7355 214.084 50.7355L217.598 50.9018C219.188 50.973 220.613 51.0205 221.8 51.0205C222.061 51.0205 222.275 51.0918 222.417 51.2105C222.559 51.3293 222.749 51.5906 222.987 51.9469C223.39 52.5644 226.215 56.3411 231.438 63.3006C236.685 70.2601 240.412 75.2006 242.643 78.146C243.213 78.8823 243.617 79.2386 243.901 79.2386C244.21 79.2386 244.376 78.8585 244.4 78.0984C244.471 75.3432 244.495 67.9323 244.495 55.866C244.471 55.201 244.115 54.5834 243.474 53.9658C242.833 53.3483 242.192 52.992 241.599 52.8732C240.103 52.5882 239.343 52.2081 239.343 51.7806C239.343 51.5906 239.557 51.4481 239.984 51.3531C240.412 51.2343 240.886 51.1868 241.385 51.1868H244.234L246.726 51.1393C247.795 51.068 248.887 51.0205 249.979 51.0205C250.952 51.0205 251.427 51.2105 251.427 51.6143C251.427 52.1131 250.881 52.4932 249.765 52.707C248.531 52.9682 247.723 53.3008 247.32 53.6808C246.916 54.0846 246.679 54.7259 246.631 55.6523C246.56 56.9587 246.536 65.3908 246.536 80.925C246.536 82.3739 246.608 83.7753 246.726 85.0817L246.774 86.2218C246.774 87.1244 246.418 87.5757 245.729 87.5757C245.326 87.5757 244.685 87.2669 243.806 86.6494V86.6969Z" fill="#231815"/>
<path d="M262.964 85.1055C260.305 83.5378 258.169 81.4001 256.578 78.6923C254.988 75.9845 254.204 72.9916 254.204 69.7138C254.204 66.1747 255.035 62.9443 256.697 60.0227C258.359 57.1012 260.614 54.7734 263.463 53.0632C266.288 51.3531 269.35 50.498 272.626 50.498C273.79 50.498 275.594 50.7117 278.015 51.1155C280.437 51.5431 281.98 51.9231 282.644 52.2794C282.811 52.3507 282.929 52.4457 282.977 52.5169C283.024 52.6119 283.072 52.7545 283.096 52.9207C283.428 55.771 283.594 57.695 283.594 58.7163C283.594 59.0014 283.523 59.2627 283.38 59.4764C283.238 59.6902 283.048 59.809 282.858 59.809C282.55 59.809 282.312 59.6902 282.17 59.4289C282.003 59.1676 281.861 58.8114 281.719 58.3363C281.363 57.2437 280.84 56.2698 280.176 55.4385C279.701 54.7734 278.775 54.1321 277.398 53.4908C276.021 52.8495 274.288 52.5407 272.223 52.5407C269.73 52.5407 267.475 53.3008 265.481 54.7972C263.487 56.3173 261.943 58.3363 260.851 60.8541C259.759 63.3956 259.19 66.0796 259.19 68.9537C259.19 72.2791 259.807 75.1769 261.041 77.6709C262.276 80.1649 263.89 82.0651 265.908 83.3953C267.902 84.7254 270.039 85.3905 272.318 85.3905C273.979 85.3905 275.309 85.1767 276.282 84.7729C277.256 84.3691 277.968 83.8941 278.443 83.3715C278.87 82.8965 279.226 82.3027 279.511 81.5663C279.796 80.83 279.938 80.0462 279.938 79.1673C279.938 78.5022 279.938 78.0034 279.986 77.6471L280.033 76.0082C280.033 75.1294 279.938 74.5831 279.772 74.3693C279.416 73.823 278.68 73.3954 277.564 73.1104C276.472 72.8254 275.57 72.6829 274.858 72.6829C274.692 72.6829 274.478 72.5878 274.241 72.3978C273.979 72.2078 273.861 71.994 273.861 71.7328C273.861 71.4715 273.979 71.2577 274.241 71.0677C274.502 70.8777 274.692 70.8064 274.858 70.8064C275.618 70.8064 276.615 70.8539 277.802 70.9252C279.06 70.9964 280.176 71.0439 281.149 71.0439C281.742 71.0439 282.478 70.9964 283.357 70.9252C284.235 70.8539 284.971 70.8064 285.612 70.8064C285.802 70.8064 286.039 70.8777 286.277 71.0202C286.538 71.1627 286.656 71.3765 286.656 71.6853C286.656 71.899 286.514 72.1128 286.253 72.3028C285.992 72.4928 285.778 72.6116 285.612 72.6591C284.9 72.8729 284.401 73.1817 284.116 73.5855C283.808 73.9892 283.618 74.5593 283.523 75.3431C283.357 76.6495 283.262 78.0272 283.262 79.4286V80.9013C283.262 81.0913 283.309 81.2575 283.38 81.4238C283.452 81.5901 283.523 81.7088 283.547 81.7801C283.618 81.8989 283.736 82.0414 283.926 82.2551C284.116 82.4452 284.211 82.6114 284.211 82.7302C284.211 83.3478 283.974 83.7041 283.499 83.7753C283.262 83.8228 282.811 84.0366 282.146 84.4404C280.508 85.2717 278.846 85.9843 277.184 86.5781C275.523 87.1719 273.647 87.457 271.582 87.457C268.519 87.457 265.647 86.6731 262.964 85.1055Z" fill="#231815"/>
<path d="M115.921 78.3122L116.206 78.5973L116.49 78.3122L117.654 77.1483C124.586 70.2126 130.164 65.2008 134.438 62.0655C138.616 58.9539 141.797 56.9349 144.005 56.0086C142.865 57.3862 140.705 60.5215 137.547 65.4383C136.954 66.4122 136.076 67.9799 134.936 70.1888C134.343 71.2815 133.369 73.2292 132.04 76.032C130.71 78.9298 129.049 82.7302 127.078 87.457C126.627 88.6921 126.057 90.1172 125.393 91.6849C124.728 93.2763 124.348 94.1552 124.253 94.3452C123.921 95.1765 123.612 95.9129 123.327 96.5542C123.019 97.1955 122.829 97.6231 122.734 97.8606L122.449 98.1456L122.853 98.0031C124.776 96.5779 126.532 95.2716 128.123 94.1077C129.713 92.9438 131.185 91.8512 132.562 90.8298L141.298 84.2266C144.408 81.8751 146.901 79.9511 148.729 78.4547C155.329 73.1817 161.643 67.8611 167.649 62.493C170.949 59.6427 173.062 57.6237 173.988 56.4361H175.578C174.012 58.17 171.923 60.9016 169.311 64.6307C169.216 64.7733 169.05 65.0108 168.789 65.3433C168.528 65.6996 168.29 66.0084 168.077 66.3172C167.839 66.626 167.554 67.006 167.175 67.4573C166.439 68.3836 165.299 69.8563 163.732 71.9228C162.949 72.9679 162.284 73.8942 161.714 74.6543C161.145 75.4144 160.243 76.6258 159.008 78.2647C158.723 78.6685 158.177 79.4286 157.323 80.545C156.468 81.6376 155.708 82.6352 155.02 83.514L146.426 94.7965L137.69 106.221C135.767 108.834 133.179 112.278 129.927 116.554L123.589 125.152C118.674 131.851 116.229 135.983 116.229 137.551C116.229 138.739 116.752 139.333 117.82 139.333C119.387 139.333 122.164 137.48 126.152 133.751C130.093 130.069 134.461 125.366 139.233 119.642L140.278 120.473C129.049 133.917 121.523 140.639 117.701 140.639C115.636 140.639 114.615 139.57 114.615 137.409C114.615 135.39 115.778 132.302 118.128 128.121C120.384 124.273 122.663 120.734 125.013 117.528C129.642 111.02 133.132 106.412 135.458 103.68L144.741 92.54L153.477 82.0176L162.759 70.9964C165.655 67.5048 167.792 64.7733 169.216 62.8018C168.433 63.6806 166.819 65.177 164.326 67.3385C164.183 67.4335 163.637 67.8611 162.712 68.6449C161.762 69.4288 160.005 70.9252 157.37 73.1104C155.59 74.5831 154.498 75.4857 154.094 75.7944C153.714 76.127 153.263 76.4833 152.741 76.8871C152.005 77.4334 151.435 77.8847 151.032 78.1935L141.749 85.343C134.319 91.1149 128.883 95.2478 125.44 97.7418L121.737 100.283L121.333 100.568L121.191 100.972C118.532 106.53 115.731 111.518 112.787 115.984C109.938 120.307 106.686 124.558 103.03 128.786C100.561 131.637 98.3533 133.869 96.4304 135.532C94.3176 137.314 92.4896 138.644 90.9228 139.523C89.1898 140.449 87.6705 140.9 86.3885 140.9C85.2965 140.9 84.4419 140.544 83.8484 139.808C83.2074 139.024 82.8751 138.097 82.8751 136.981C82.8751 135.057 84.062 132.492 86.4597 129.261C88.81 126.102 92.1335 122.54 96.4304 118.597C100.324 114.962 105.119 111.067 110.817 106.887L115.849 103.371C115.849 103.371 116.111 103.157 116.324 102.991C116.562 102.825 116.823 102.635 117.155 102.397L117.701 101.233C121.096 93.8464 123.873 88.0508 126.034 83.8228C128.977 77.8134 131.874 72.4928 134.77 67.8611C137.785 62.8493 139.47 60.1178 139.803 59.6665L138.568 60.6878C133.749 64.2269 128.906 68.2174 124.063 72.6591L122.853 73.8705C122.425 74.298 121.974 74.7493 121.523 75.2006C121.025 75.6994 120.502 76.222 119.98 76.7446C119.458 77.2671 118.888 77.8372 118.295 78.431C118.152 78.526 117.962 78.6923 117.749 78.906C117.654 79.001 117.582 79.0961 117.511 79.1911C117.44 79.2861 117.345 79.4048 117.203 79.5474C118.674 81.3763 119.41 83.4903 119.41 85.8893C119.41 88.4546 118.413 90.9723 116.395 93.3951C114.378 95.8179 111.6 97.8606 108.063 99.5233C104.526 101.138 100.514 102.184 96.0268 102.682L92.2522 107.029L88.4776 111.305C84.9404 115.295 81.7118 118.858 78.7681 121.969C76.3941 124.487 74.2338 126.625 72.3109 128.383C70.0082 130.449 67.9191 132.231 66.0436 133.751C61.3669 137.385 56.9039 140.401 52.6307 142.848C48.1439 145.318 44.037 147.171 40.3098 148.359C36.4165 149.594 32.6894 150.211 29.1759 150.211C24.4517 150.211 20.7484 148.715 18.042 145.746C15.3357 142.753 13.9826 138.667 13.9826 133.418C13.9826 130.473 14.3387 127.48 15.0746 124.392C10.6353 123.418 7.05058 121.613 4.34425 118.953C1.54297 116.293 0.142334 113.3 0.142334 109.998C0.142334 107.195 1.1394 104.606 3.10979 102.231C5.12766 99.8083 7.95268 97.7656 11.5611 96.1029C17.2112 93.5376 23.9295 92.255 31.7161 92.255H34.185C34.4699 92.255 34.7785 92.255 35.1583 92.2787C35.5144 92.2787 35.823 92.3262 36.0604 92.3737C39.0042 89.5234 42.6126 86.5306 46.9332 83.3478C50.874 80.545 54.791 78.1222 58.7081 76.0557C62.6489 74.0368 66.4472 72.4691 70.1269 71.3765C73.9727 70.1888 77.2725 69.595 80.0263 69.595C85.4864 69.595 88.9761 71.614 90.4717 75.6519C94.555 74.3218 98.5432 73.6567 102.437 73.6567C107.992 73.6567 112.526 75.2244 116.063 78.336L115.921 78.3122ZM34.0426 94.0839L34.5174 93.7989C34.3274 93.7514 34.0663 93.7276 33.734 93.7039C33.4016 93.7039 33.093 93.6801 32.8081 93.6801H30.814C25.1639 93.6801 20.1549 94.369 15.7393 95.7466C11.3 97.1718 7.81024 99.1195 5.29384 101.59C2.77744 104.108 1.51923 106.91 1.51923 109.998C1.51923 113.086 2.72996 115.628 5.17514 117.908C7.59659 120.283 10.9914 121.993 15.3595 122.991C16.2378 120.045 17.6622 116.768 19.6326 113.157C21.4606 109.761 23.7158 106.293 26.3747 102.754C28.7961 99.547 31.3837 96.6492 34.09 94.0839H34.0426ZM90.3293 106.055L93.4155 102.825H92.9407C92.2997 102.92 91.6587 102.967 91.0178 102.967C87.2194 102.967 82.8751 102.516 78.0084 101.59L77.7236 101.875C75.1597 104.44 72.5246 106.815 69.842 108.953C67.1594 111.115 64.4293 113.038 61.6518 114.772C58.8743 116.483 55.9305 118.098 52.8206 119.547C43.8708 123.632 34.826 125.675 25.6387 125.675C22.3864 125.675 19.4664 125.437 16.9025 124.986C15.858 128.976 15.312 132.064 15.312 134.273C15.312 138.549 16.5939 142.017 19.1578 144.724C21.7217 147.432 24.9978 148.786 28.986 148.786C32.6182 148.786 36.6302 147.955 41.022 146.316C45.2477 144.796 49.6633 142.515 54.2925 139.428C58.9692 136.268 64.1919 131.993 69.9844 126.625C71.6462 125.057 74.3525 122.421 78.1271 118.668C81.9017 114.939 84.9641 111.851 87.3144 109.404L90.2818 106.031L90.3293 106.055ZM38.3157 94.0839H37.9121L37.6273 94.369C33.9476 98.1219 31.1226 101.305 29.1047 103.87C27.3242 106.221 25.2352 109.238 22.8374 112.967C20.1786 117.195 18.3981 120.687 17.4723 123.442C19.7276 123.893 22.4576 124.131 25.6625 124.131C30.0306 124.131 34.3512 123.656 38.6718 122.682C42.9449 121.708 47.2418 120.307 51.6099 118.407C55.6931 116.625 59.7051 114.44 63.6459 111.875C67.2781 109.523 70.839 106.673 74.3763 103.276L76.0855 101.613C76.0855 101.613 76.1805 101.495 76.2517 101.4C76.3229 101.305 76.3941 101.21 76.4891 101.115H76.0855C75.492 100.972 74.9223 100.83 74.3763 100.711C74.4237 100.711 74.305 100.711 73.9964 100.64C73.6878 100.592 73.308 100.521 72.8569 100.426L63.9783 98.6444C62.0554 98.1456 59.3491 97.528 55.8593 96.7917C52.5595 96.1504 50.0906 95.6753 48.4288 95.3428C44.8441 94.7015 41.4731 94.2977 38.3157 94.1077V94.0839ZM39.6926 92.2312L39.289 92.7063H39.6926C42.304 93.0388 46.0786 93.5851 50.969 94.369C55.3608 95.1528 59.8951 96.0791 64.5243 97.1955L73.2605 99.0482L77.1775 99.8796L77.5811 100.022L77.866 99.6183C81.4982 95.6278 84.2757 91.7799 86.1986 88.0508C88.169 84.2979 89.1661 81.0438 89.1661 78.336C89.1661 78.0034 89.1186 77.6709 89.0236 77.3146C85.6289 78.3122 82.0204 80.0224 78.2221 82.3977C74.5424 84.7729 71.575 87.3382 69.2722 90.046L68.1802 89.0246C69.8657 87.1482 71.7174 85.4142 73.6878 83.8703C75.8481 82.2076 78.1746 80.735 80.7147 79.4048C83.2786 78.0747 85.9612 76.9821 88.7625 76.1032C87.7179 72.7066 84.703 71.0202 79.7414 71.0202C75.9431 71.0202 71.8361 71.8753 67.4205 73.5617C62.8388 75.2956 58.2095 77.7422 53.5328 80.8537C48.7137 84.1554 44.1082 87.9795 39.7164 92.2787L39.6926 92.2312ZM114.947 79.8324L115.232 79.5474C112.241 76.5545 107.897 75.0819 102.152 75.0819C98.8044 75.0819 95.0772 75.6282 91.0178 76.7446L90.6142 76.8871V78.1935C90.6142 81.1863 89.6646 84.5591 87.7892 88.3121C85.8188 92.1125 83.0412 96.0316 79.4565 100.022L79.1717 100.307C79.3616 100.307 79.8126 100.355 80.5486 100.45C84.252 101.138 87.6467 101.471 90.7329 101.471C92.5134 101.471 93.914 101.4 94.9348 101.257C95.2909 100.806 95.5758 100.473 95.7657 100.283L96.6678 99.452C96.9052 99.2145 97.2613 98.8107 97.7598 98.2169C98.2584 97.6231 98.6857 97.1718 98.9943 96.8392C99.6353 96.1029 100.252 95.4141 100.846 94.7728C101.439 94.1314 102.152 93.3713 102.983 92.4925C103.98 91.3999 105.689 89.5709 108.063 87.0532C109.392 85.5805 110.508 84.3929 111.434 83.4665L114.947 79.8086V79.8324ZM115.636 104.82C115.636 104.82 115.446 104.939 115.351 105.034C115.256 105.129 115.161 105.2 115.066 105.248L114.662 105.533L111.149 108.217L105.238 112.682C101.392 115.746 97.7836 118.929 94.4363 122.183C91.2789 125.295 88.7862 128.098 87.0058 130.592C85.1778 133.109 84.252 135.295 84.252 137.124C84.252 138.691 84.9404 139.475 86.3173 139.475C88.0978 139.475 90.2818 138.477 92.8457 136.459C95.4571 134.392 98.1397 131.756 100.893 128.549C103.552 125.532 106.259 121.779 109.012 117.338C111.671 113.062 113.879 108.929 115.612 104.868L115.636 104.82ZM97.9023 100.545L97.6174 100.83C103.624 99.9508 108.538 98.0981 112.336 95.2478C116.039 92.3975 117.915 89.1909 117.915 85.6043C117.915 83.8228 117.298 82.0651 116.063 80.3787L115.778 80.8537C114.045 82.5877 110.009 86.9582 103.671 93.9414L97.9023 100.545Z" fill="#231815"/>
<path d="M176.552 119.618L177.525 120.449C174.13 124.392 170.64 128.335 167.08 132.278C164.065 135.437 161.714 137.622 160.053 138.81C158.343 140.093 156.848 140.734 155.518 140.734C154.592 140.734 153.809 140.401 153.168 139.76C152.575 139.166 152.266 138.359 152.266 137.361C152.266 135.247 153.5 132.041 155.969 127.718L155.067 128.478C152.551 131.185 149.441 134.107 145.785 137.219C142.248 139.926 139.565 141.28 137.737 141.28C136.598 141.28 135.672 140.876 134.984 140.045C134.295 139.261 133.939 138.24 133.939 136.957C133.939 134.653 134.794 131.969 136.479 128.905C138.141 125.865 140.467 122.777 143.506 119.618C147.352 115.533 151.91 111.732 157.133 108.193C162.165 104.701 165.774 102.967 167.934 102.967C169.905 102.967 170.902 103.989 170.902 106.055C170.902 106.388 170.759 107.005 170.498 107.908L173.584 103.632H177.098C176.742 104.226 176.552 104.488 176.552 104.393L174.415 107.148L172.017 110.449L170.308 112.658L158.201 129.452C155.4 133.252 153.999 135.936 153.999 137.504C153.999 138.786 154.545 139.428 155.661 139.428C157.038 139.428 159.079 138.216 161.786 135.77C165.774 132.064 170.403 126.981 175.673 120.568L176.575 119.594L176.552 119.618ZM135.696 137.385C135.696 139.095 136.384 139.926 137.761 139.926C139.826 139.926 143.292 137.789 148.159 133.537C153.121 129.214 157.797 124.25 162.189 118.597C167.056 112.445 169.477 108.312 169.477 106.198C169.477 104.868 168.931 104.203 167.815 104.203C166.154 104.203 163.424 105.675 159.625 108.597C155.779 111.495 151.862 115.01 147.922 119.19C144.384 122.872 141.536 126.34 139.328 129.642C137.073 133.086 135.862 135.651 135.672 137.361L135.696 137.385Z" fill="#231815"/>
<path d="M212.422 119.618L213.396 120.449C212.707 121.281 212.209 121.898 211.876 122.302C208.292 126.886 204.85 129.19 201.55 129.19C200.363 129.19 199.413 128.786 198.725 127.955C197.989 127.171 197.633 126.126 197.633 124.796C197.633 122.872 198.487 120.473 200.173 117.646C198.701 118.787 196.778 120.639 194.404 123.157C191.555 126.15 188.659 129.665 185.668 133.751L182.985 137.266C182.439 137.955 182.036 138.477 181.775 138.81C181.513 139.166 181.323 139.451 181.181 139.665C181.134 139.808 181.039 139.998 180.872 140.211C180.706 140.449 180.516 140.71 180.279 141.043H176.623L177.169 140.354C177.169 140.354 177.549 139.831 178.214 139.048C178.404 138.81 179.211 137.741 180.683 135.817L183.65 131.756C186.071 128.596 187.876 126.221 189.015 124.677C191.627 121.423 193.882 118.454 195.757 115.794C197.633 113.181 198.962 111.186 199.745 109.808C200.386 108.621 200.719 107.599 200.719 106.792C200.719 105.699 200.173 105.129 199.057 105.129C197.941 105.129 196.636 105.651 195.069 106.72C193.502 107.813 191.508 109.618 189.086 112.088C186.522 114.796 183.579 118.169 180.279 122.207L179.875 122.611L178.902 121.708L179.306 121.304C182.059 117.908 184.433 115.081 186.451 112.848C188.469 110.592 190.25 108.811 191.816 107.48C194.665 104.963 197.158 103.704 199.318 103.704C201.289 103.704 202.286 104.749 202.286 106.792C202.286 107.48 202.143 108.217 201.882 109.001C201.645 109.499 200.885 111.043 199.603 113.609C197.989 116.506 196.659 118.62 195.615 119.95C199.366 116.649 201.882 114.582 203.117 113.751C204.114 112.088 206.108 109.737 209.028 106.673C212.612 103.086 214.844 101.305 215.77 101.305C216.126 101.305 216.316 101.566 216.316 102.065C216.316 103.039 215.058 104.773 212.541 107.29C210.167 109.713 207.247 112.16 203.805 114.582C203.663 114.867 203.544 115.057 203.449 115.176C203.354 115.295 203.283 115.366 203.235 115.414C200.434 119.452 199.033 122.587 199.033 124.844C199.033 126.815 199.912 127.813 201.645 127.813C204.209 127.813 207.366 125.651 211.141 121.352L211.829 120.378C211.829 120.378 212.114 120.069 212.375 119.689L212.422 119.618Z" fill="#231815"/>
<path d="M248.364 119.618L249.338 120.449C248.649 121.281 248.151 121.898 247.818 122.302C244.234 126.886 240.791 129.19 237.492 129.19C236.305 129.19 235.355 128.786 234.667 127.955C233.931 127.171 233.575 126.126 233.575 124.796C233.575 122.872 234.429 120.473 236.115 117.646C234.643 118.787 232.72 120.639 230.346 123.157C227.497 126.15 224.601 129.665 221.61 133.751L218.927 137.266C218.381 137.955 217.978 138.477 217.716 138.81C217.455 139.166 217.265 139.451 217.123 139.665C217.075 139.808 216.981 139.998 216.814 140.211C216.648 140.449 216.458 140.71 216.221 141.043H212.565L213.111 140.354C213.111 140.354 213.491 139.831 214.155 139.048C214.345 138.81 215.153 137.741 216.624 135.817L219.592 131.756C222.013 128.596 223.818 126.221 224.957 124.677C227.568 121.423 229.824 118.454 231.699 115.794C233.575 113.181 234.904 111.186 235.687 109.808C236.328 108.621 236.661 107.599 236.661 106.792C236.661 105.699 236.115 105.129 234.999 105.129C233.883 105.129 232.577 105.651 231.011 106.72C229.444 107.813 227.45 109.618 225.028 112.088C222.464 114.796 219.521 118.169 216.221 122.207L215.817 122.611L214.844 121.708L215.248 121.304C218.001 117.908 220.375 115.081 222.393 112.848C224.411 110.592 226.192 108.811 227.758 107.48C230.607 104.963 233.1 103.704 235.26 103.704C237.23 103.704 238.228 104.749 238.228 106.792C238.228 107.48 238.085 108.217 237.824 109.001C237.587 109.499 236.827 111.043 235.545 113.609C233.931 116.506 232.601 118.62 231.557 119.95C235.308 116.649 237.824 114.582 239.058 113.751C240.055 112.088 242.05 109.737 244.97 106.673C248.554 103.086 250.786 101.305 251.712 101.305C252.068 101.305 252.258 101.566 252.258 102.065C252.258 103.039 250.999 104.773 248.483 107.29C246.109 109.713 243.189 112.16 239.747 114.582C239.604 114.867 239.486 115.057 239.414 115.176C239.32 115.295 239.248 115.366 239.201 115.414C236.4 119.452 234.999 122.587 234.999 124.844C234.999 126.815 235.877 127.813 237.61 127.813C240.174 127.813 243.332 125.651 247.106 121.352L247.795 120.378C247.795 120.378 248.079 120.069 248.341 119.689L248.364 119.618Z" fill="#231815"/>
<path d="M267.665 119.76L268.567 120.449C267.973 121.138 267.356 121.898 266.715 122.73C265.884 123.775 264.768 125.105 263.344 126.649C258.382 132.064 254.94 135.556 253.017 137.1C250.311 139.523 248.008 140.758 246.133 140.758C243.972 140.758 242.904 139.689 242.904 137.527C242.904 135.865 243.759 133.561 245.444 130.568C246.869 128.05 248.269 125.77 249.646 123.751C252.21 120.117 255.605 115.485 259.83 109.856C261.516 107.647 262.917 105.77 264.032 104.203L264.436 103.656L268.021 103.514L267.403 104.203C267.166 104.488 265.338 106.982 261.896 111.708C260.519 113.537 259.688 114.654 259.427 115.01C259.095 115.414 258.359 116.388 257.148 117.908C248.72 128.976 244.495 135.603 244.495 137.812C244.495 138.81 245.041 139.333 246.156 139.333C248.507 139.333 252.163 136.72 257.172 131.494C258.548 130.117 261.184 127.195 265.077 122.753C265.813 121.922 266.193 121.494 266.24 121.447C266.335 121.352 266.573 121.091 266.929 120.616C267.285 120.259 267.546 119.974 267.688 119.784L267.665 119.76ZM278.537 89.5472C278.49 90.521 278.086 91.3999 277.303 92.2312C276.567 93.1101 275.807 93.5376 275.024 93.5376C274.05 93.5376 273.576 93.1101 273.576 92.2312C273.576 91.2336 273.979 90.2835 274.81 89.4047C275.594 88.4783 276.377 88.027 277.16 88.027C278.086 88.027 278.537 88.5258 278.537 89.5472Z" fill="#231815"/>
<path d="M299.143 119.618L299.974 120.449L299.428 121.281C294.514 127.148 289.505 131.946 284.354 135.675C279.226 139.356 275.071 141.185 271.89 141.185C269.967 141.185 268.401 140.496 267.214 139.119C266.027 137.789 265.433 136.007 265.433 133.751C265.433 126.957 270.466 119.475 280.508 111.305C283.452 108.882 286.443 106.839 289.529 105.176C292.639 103.514 295.108 102.706 296.888 102.706C298.954 102.706 299.974 103.514 299.974 105.105C299.974 106.578 298.811 108.383 296.461 110.544C294.039 112.706 290.906 114.772 287.107 116.744C282.977 118.858 278.893 120.449 274.858 121.566L274.169 121.708C269.849 127.456 267.712 131.922 267.712 135.128C267.712 138.145 269.16 139.665 272.056 139.665C273.932 139.665 276.425 138.786 279.558 137.052C282.502 135.39 285.802 132.967 289.458 129.76C292.995 126.649 296.223 123.276 299.167 119.642L299.143 119.618ZM275.404 120.164C278.941 119.072 282.454 117.551 285.92 115.628C289.315 113.846 292.164 111.946 294.443 109.903C296.603 108.027 297.672 106.507 297.672 105.366C297.672 104.488 297.173 104.06 296.152 104.06C295.321 104.06 294.182 104.44 292.71 105.153C291.381 105.841 289.98 106.72 288.508 107.765C285.802 109.737 283.309 111.827 281.006 114.036C278.704 116.245 276.828 118.288 275.356 120.164H275.404Z" fill="#231815"/>
<path d="M322.622 89.0009H321.174C321.767 84.4166 323.809 79.4761 327.299 74.203C329.554 70.9014 331.975 68.0511 334.587 65.6759C337.103 63.3006 339.809 61.3054 342.706 59.7615C345.365 58.3363 347.762 57.6237 349.923 57.6237C353.958 57.6237 355.976 59.8802 355.976 64.3695C355.976 71.5665 351.94 81.4951 343.869 94.1077C341.756 97.4568 339.453 100.83 336.961 104.226C334.468 107.623 331.928 110.829 329.317 113.87C326.729 116.886 324.118 119.784 321.482 122.54C318.847 125.295 315.951 128.098 312.77 130.948C305.292 137.694 299.974 141.067 296.817 141.067C295.772 141.067 295.013 140.71 294.538 139.974C293.992 139.285 293.707 138.335 293.707 137.147C293.707 134.725 294.918 131.47 297.363 127.433C299.713 123.632 302.752 119.903 306.503 116.293C310.301 112.658 314.313 109.547 318.539 106.934C322.764 104.321 325.851 103.015 327.821 103.015C329.791 103.015 330.788 103.965 330.788 105.841C330.788 106.578 330.693 107.29 330.504 107.979L330.907 107.219L334.563 102.611C347.715 84.9392 354.314 72.2553 354.314 64.5357C354.314 60.9491 352.795 59.1677 349.78 59.1677C347.311 59.1677 344.676 60.0227 341.875 61.7092C339.074 63.3956 336.296 65.7709 333.542 68.7874C330.741 71.8515 328.438 75.1056 326.586 78.5022C324.711 81.9464 323.382 85.4617 322.598 89.0246L322.622 89.0009ZM295.44 137.646C295.44 138.976 295.986 139.641 297.102 139.641C298.431 139.641 300.663 138.525 303.773 136.268C307.025 133.893 310.491 130.853 314.171 127.171C318.657 122.801 322.337 118.644 325.186 114.654C327.892 110.758 329.245 107.884 329.245 106.055C329.245 104.963 328.794 104.393 327.868 104.393C326.04 104.393 322.931 106.079 318.586 109.476C314.266 112.825 309.945 116.886 305.577 121.661C298.835 129 295.464 134.321 295.464 137.622L295.44 137.646Z" fill="#231815"/>
</svg>
